<svg width="128" height="128" viewBox="0 0 128 128" xmlns="http://www.w3.org/2000/svg" role="img" aria-labelledby="title desc">
  <title id="title">Locus app icon</title>
  <desc id="desc">A document, search ring, and connected context nodes.</desc>
  <defs>
    <linearGradient id="bg" x1="20" y1="12" x2="112" y2="118" gradientUnits="userSpaceOnUse">
      <stop offset="0" stop-color="#35d0ba"/>
      <stop offset="0.5" stop-color="#4f9cf9"/>
      <stop offset="1" stop-color="#ffd166"/>
    </linearGradient>
    <linearGradient id="paper" x1="38" y1="30" x2="88" y2="100" gradientUnits="userSpaceOnUse">
      <stop offset="0" stop-color="#f7fbff"/>
      <stop offset="1" stop-color="#cfe5ff"/>
    </linearGradient>
    <filter id="shadow" x="-20%" y="-20%" width="140%" height="150%">
      <feDropShadow dx="0" dy="8" stdDeviation="8" flood-color="#03101c" flood-opacity="0.34"/>
    </filter>
  </defs>
  <rect width="128" height="128" rx="28" fill="#0d1117"/>
  <path d="M23 66C23 43.9 40.9 26 63 26h2c22.1 0 40 17.9 40 40v2c0 22.1-17.9 40-40 40h-2c-22.1 0-40-17.9-40-40v-2Z" fill="url(#bg)" opacity="0.2"/>
  <path d="M35 75c0-22.1 17.9-40 40-40h19v58H53c-9.9 0-18-8.1-18-18Z" fill="url(#paper)" filter="url(#shadow)"/>
  <path d="M75 35v17c0 4.4 3.6 8 8 8h11" fill="none" stroke="#86b7ff" stroke-width="5" stroke-linecap="round"/>
  <path d="M52 60h21M52 74h29M52 88h19" stroke="#24435f" stroke-width="6" stroke-linecap="round"/>
  <circle cx="83" cy="79" r="17" fill="#0d1117" stroke="#35d0ba" stroke-width="7"/>
  <path d="m95 91 14 14" stroke="#ffd166" stroke-width="9" stroke-linecap="round"/>
  <path d="M34 43 23 34M28 64H16M36 94l-11 9" stroke="#35d0ba" stroke-width="6" stroke-linecap="round"/>
  <circle cx="21" cy="32" r="5" fill="#ffd166"/>
  <circle cx="16" cy="64" r="5" fill="#4f9cf9"/>
  <circle cx="24" cy="104" r="5" fill="#35d0ba"/>
</svg>
